<?xml version="1.0" encoding="UTF-8"?>
<svg xmlns="http://www.w3.org/2000/svg" xmlns:xlink="http://www.w3.org/1999/xlink" width="283" height="2835" viewBox="0 0 2835 2835">
<path fill-rule="evenodd" fill="rgb(50%, 50%, 50%)" fill-opacity="1" d="M 0 0.351562 L 2834.648438 0.351562 L 2834.648438 2835 L 0 2835 L 0 0.351562 "/>
<path fill-rule="nonzero" fill="rgb(0%, 0%, 0%)" fill-opacity="1" d="M 787.792969 384.140625 C 738.410156 389.378906 693.78125 409.308594 657.773438 439.671875 C 615.976562 474.351562 585.6875 522.839844 574.304688 577.941406 C 572.375 586.488281 570.929688 594.558594 569.96875 603.109375 C 569.488281 610.699219 569.0625 619.25 569.0625 628.28125 L 569.0625 2174.304688 L 565.269531 2174.304688 L 569.0625 2174.84375 L 569.0625 2176.773438 C 568.519531 2180.566406 568.101562 2184.839844 567.558594 2189.058594 C 567.558594 2192.851562 567.558594 2197.609375 567.558594 2202.847656 C 567.558594 2275.050781 590.863281 2340.152344 636.394531 2385.683594 C 677.703125 2427.535156 738.410156 2453.132812 817.175781 2453.132812 L 2263.53125 2453.132812 C 2264.488281 2453.132812 2265.460938 2452.589844 2265.941406 2451.683594 C 2266.480469 2451.144531 2266.910156 2450.179688 2266.910156 2449.757812 L 2266.910156 2436.328125 L 2266.359375 2435.785156 L 2266.359375 2429.824219 L 2265.878906 2429.34375 L 2265.878906 2425.851562 L 2265.339844 2425.367188 L 2265.339844 2422.839844 L 2264.859375 2422.355469 L 2264.859375 2420.25 L 2264.308594 2419.769531 L 2264.308594 2418.742188 L 2263.828125 2418.199219 L 2263.828125 2417.179688 L 2263.289062 2417.179688 L 2263.289062 2416.15625 L 2262.75 2415.613281 L 2262.75 2415.070312 L 2262.261719 2415.070312 L 2262.261719 2414.589844 L 2261.238281 2413.5625 L 2261.238281 2413.023438 L 2260.699219 2413.023438 L 2260.699219 2412.539062 L 2260.160156 2412.539062 L 2260.160156 2412 L 2259.679688 2412 L 2259.679688 2411.457031 L 2259.140625 2411.457031 L 2259.140625 2410.976562 L 2258.660156 2410.976562 L 2258.109375 2410.433594 L 2257.628906 2410.433594 L 2257.089844 2409.953125 L 2256.539062 2409.953125 L 2256.058594 2409.410156 L 2255.101562 2409.410156 L 2254.558594 2408.871094 L 2254.078125 2408.871094 L 2253.109375 2408.386719 L 2252.628906 2408.386719 L 2251.671875 2407.84375 L 2251.128906 2407.84375 L 2250.160156 2407.363281 L 2249.261719 2407.363281 L 2248.71875 2406.820312 L 2246.851562 2406.820312 L 2245.890625 2406.277344 L 2244.921875 2406.277344 L 2243.960938 2405.796875 L 2241.070312 2405.796875 L 2240.101562 2405.257812 L 2238.238281 2405.257812 L 2237.28125 2404.769531 L 2233.359375 2404.769531 L 2232.460938 2404.230469 L 2226.128906 2404.230469 L 2224.691406 2403.6875 L 2215.898438 2403.6875 L 2214.449219 2403.207031 L 2186.269531 2403.207031 L 2183.859375 2402.664062 L 2175.730469 2402.664062 L 859.453125 2399.289062 C 818.203125 2399.289062 780.199219 2382.253906 753.164062 2355.148438 C 725.640625 2327.628906 708.539062 2290.050781 708.539062 2248.316406 L 709.019531 2248.316406 L 709.019531 2243.136719 C 709.019531 2241.269531 709.019531 2238.800781 709.019531 2236.511719 L 709.5625 2235.96875 L 709.5625 2232.117188 L 710.105469 2229.285156 C 714.378906 2195.019531 729.976562 2164.125 753.222656 2141.359375 C 780.261719 2113.898438 817.78125 2097.21875 859.035156 2096.738281 L 859.574219 2096.738281 L 1856.96875 2099.144531 L 2265.101562 2100.050781 L 2265.101562 2092.402344 L 2272.261719 2092.945312 C 2270.339844 2082.464844 2265.640625 2065.839844 2265.101562 2051.628906 L 2265.101562 2039.707031 L 2257.929688 2039.707031 C 1767.78125 2040.25 1278.121094 2040.671875 787.847656 2040.671875 L 785.984375 455.199219 L 785.984375 384.140625 Z M 1255.171875 1684.148438 L 1840.289062 1684.148438 C 1851.191406 1684.148438 1861.609375 1688.910156 1869.199219 1696.5 C 1876.359375 1703.671875 1881.121094 1714.089844 1881.121094 1725.46875 L 1881.121094 1841.816406 C 1881.121094 1853.199219 1876.359375 1863.195312 1869.199219 1870.785156 C 1861.609375 1878.371094 1851.191406 1882.707031 1840.289062 1882.707031 L 1255.171875 1882.707031 C 1243.789062 1882.707031 1233.789062 1878.371094 1226.210938 1870.785156 C 1218.679688 1863.195312 1214.339844 1853.199219 1214.339844 1841.816406 L 1214.339844 1725.46875 C 1214.339844 1714.089844 1218.679688 1703.671875 1226.210938 1696.5 C 1233.921875 1688.910156 1243.789062 1684.148438 1255.171875 1684.148438 Z M 1840.289062 1724.5 L 1254.691406 1724.5 C 1254.148438 1725.050781 1254.148438 1725.050781 1254.148438 1725.46875 L 1254.148438 1841.816406 C 1254.148438 1841.816406 1254.148438 1842.300781 1254.691406 1842.300781 C 1254.691406 1842.84375 1255.171875 1842.84375 1255.171875 1842.84375 L 1840.289062 1842.84375 C 1840.289062 1842.84375 1840.769531 1842.84375 1840.769531 1842.300781 L 1841.320312 1841.816406 L 1841.320312 1725.46875 C 1841.320312 1724.929688 1840.769531 1724.929688 1840.769531 1724.5 Z M 787.792969 343.789062 L 787.792969 342.828125 L 813.863281 342.828125 L 827.65625 342.351562 L 827.65625 342.828125 L 2191.449219 342.828125 C 2223.238281 342.828125 2252.148438 355.71875 2273.050781 376.550781 C 2293.878906 397.449219 2307.25 426.421875 2307.25 458.210938 L 2307.25 2054.097656 C 2307.25 2066.984375 2307.738281 2082.164062 2306.710938 2096.375 L 2307.25 2096.375 L 2307.25 2468.726562 L 2302.5 2468.726562 C 2300.570312 2473.0625 2297.738281 2476.859375 2294.359375 2480.113281 C 2286.300781 2488.238281 2275.449219 2493 2263.53125 2493 C 2263.53125 2493 940.089844 2493 817.175781 2493 C 727.023438 2493 656.746094 2463.066406 607.910156 2414.167969 C 554.730469 2360.929688 527.269531 2285.414062 527.269531 2202.789062 C 527.269531 2198.027344 527.269531 2192.371094 527.753906 2186.648438 C 528.292969 2182.371094 528.292969 2178.097656 528.714844 2173.824219 L 528.714844 628.28125 C 528.714844 618.828125 529.253906 608.769531 530.160156 598.890625 C 531.667969 588.898438 533.054688 579.378906 534.917969 569.929688 C 548.164062 505.730469 583.335938 449.238281 632.175781 408.890625 C 675.355469 372.761719 728.953125 349.460938 787.792969 343.789062 Z M 827.65625 458.210938 L 830.0625 2003.753906 L 835.789062 2003.753906 C 1312.199219 2002.308594 1789.101562 2002.789062 2265.519531 2002.789062 L 2266.960938 2002.789062 L 2266.960938 458.210938 C 2266.960938 437.378906 2258.46875 418.828125 2245.230469 405.039062 L 2244.679688 405.039062 C 2231.429688 391.25 2212.339844 382.699219 2191.5 382.699219 L 827.65625 382.699219 Z M 861.859375 2140.097656 L 861.378906 2140.097656 C 833.378906 2141.058594 807.785156 2151.476562 788.335938 2169.0625 C 768.398438 2186.167969 755.027344 2209.953125 751.777344 2236.511719 L 751.234375 2239.886719 C 750.753906 2243.679688 750.753906 2247.054688 750.753906 2250.304688 L 750.753906 2250.847656 C 750.753906 2281.257812 763.039062 2309.199219 783.03125 2329.195312 C 803.445312 2349.125 830.96875 2361.957031 861.804688 2361.957031 L 2177.648438 2365.324219 L 2200.898438 2365.324219 L 2202.410156 2365.867188 L 2219.511719 2365.867188 L 2220.46875 2366.351562 L 2229.691406 2366.351562 L 2230.648438 2366.894531 L 2235.53125 2366.894531 L 2236.488281 2367.4375 L 2240.339844 2367.4375 L 2241.851562 2367.917969 L 2245.820312 2367.917969 L 2246.730469 2368.460938 L 2249.679688 2368.460938 L 2250.640625 2368.941406 L 2252.628906 2368.941406 L 2254.078125 2369.480469 L 2255.039062 2369.480469 L 2255.941406 2370.023438 L 2257.929688 2370.023438 L 2258.46875 2370.503906 L 2260.339844 2370.503906 L 2261.300781 2371.046875 L 2262.328125 2371.046875 L 2262.871094 2371.53125 L 2264.308594 2371.53125 L 2264.308594 2372.074219 L 2265.28125 2372.074219 L 2266.238281 2372.613281 L 2267.261719 2372.613281 L 2268.230469 2373.097656 L 2269.25 2373.097656 L 2269.25 2144.132812 L 861.859375 2140.097656 "/>
</svg>
