<?xml version="1.0" encoding="utf-8"?>
<!-- Generator: Adobe Illustrator 24.1.3, SVG Export Plug-In . SVG Version: 6.00 Build 0)  -->
<svg version="1.1" id="Layer_1" xmlns="http://www.w3.org/2000/svg" xmlns:xlink="http://www.w3.org/1999/xlink" x="0px" y="0px"
	 viewBox="0 0 24 24" style="enable-background:new 0 0 24 24;" xml:space="preserve">
<style type="text/css">
	.st0{fill:#8943C0;}
</style>
<desc>Created with Sketch.</desc>
<g id="Icons_x2F_Search_x2F_Search-_x28_regular_x29_">
	<g id="search" transform="translate(-1.000000, -1.000000)">
		<g id="Shape">
			<path id="path-1_1_" class="st0" d="M24.2,25c-0.2,0-0.4-0.1-0.5-0.2l-6.5-6.5c-0.8,0.7-1.6,1.2-2.6,1.6
				c-1.2,0.5-2.5,0.8-3.8,0.8c-1.3,0-2.5-0.2-3.7-0.7c-2.4-1-4.3-2.8-5.4-5.3c-1-2.4-1-5.1-0.1-7.5S4.6,2.8,7,1.8
				C8.2,1.3,9.5,1,10.8,1c1.3,0,2.5,0.2,3.7,0.7c2.4,1,4.3,2.8,5.4,5.3c1,2.4,1,5.1,0.1,7.5c-0.4,1-1,1.9-1.6,2.7l6.5,6.5
				c0.3,0.3,0.3,0.8,0,1.1C24.6,24.9,24.4,25,24.2,25z M10.8,2.5c-1.1,0-2.2,0.2-3.2,0.7C5.5,4,3.9,5.6,3.1,7.7S2.3,12,3.2,14.1
				c0.9,2,2.5,3.6,4.5,4.5c1,0.4,2,0.6,3.1,0.6c1.1,0,2.2-0.2,3.2-0.7c1-0.4,1.8-1,2.6-1.7c0,0,0,0,0,0c0,0,0,0,0,0
				c0.8-0.8,1.4-1.7,1.8-2.7c0.8-2.1,0.8-4.3-0.1-6.4c-0.9-2-2.5-3.6-4.5-4.5C12.9,2.7,11.9,2.5,10.8,2.5z"/>
		</g>
	</g>
</g>
</svg>
